<?xml version="1.0" encoding="utf-8"?>
<!-- Svg Vector Icons : http://www.onlinewebfonts.com/icon -->
<!DOCTYPE svg PUBLIC "-//W3C//DTD SVG 1.1//EN" "http://www.w3.org/Graphics/SVG/1.1/DTD/svg11.dtd">
<svg version="1.1" xmlns="http://www.w3.org/2000/svg" xmlns:xlink="http://www.w3.org/1999/xlink" x="0px" y="0px" viewBox="0 0 1000 1000" enable-background="new 0 0 1000 1000" xml:space="preserve">
<metadata> Svg Vector Icons : http://www.onlinewebfonts.com/icon </metadata>
<g><path d="M668.2,749.5L446.4,521.6V219h99.1v270.8L733,685.5L668.2,749.5z"/><path d="M951.5,309.3c-24.7-58.4-60-110.8-105-155.7c-45-45-97.4-80.3-155.7-105C630.3,23,566.1,10,500,10c-66.1,0-130.3,13-190.7,38.5c-58.4,24.7-110.8,60-155.7,105c-0.9,0.9-1.9,1.9-2.8,2.9l6.5-80.5l-88.9-7.2L45.6,348.1l283.6-41.4l-12.9-88.3L219,232.6C289.8,158.4,389.6,112,500,112c214,0,388,174.1,388,388c0,214-174.1,388-388,388C286,888,112,714,112,500c0-6.5,0.2-13,0.5-19.4c-33.8-4.4-67.5-10.2-101.2-16.3C10.4,476.1,10,488,10,500c0,66.1,13,130.3,38.5,190.7c24.7,58.4,60,110.8,105,155.7c45,45,97.4,80.3,155.7,105C369.7,977,433.9,990,500,990c66.1,0,130.3-13,190.7-38.5c58.4-24.7,110.8-60,155.7-105c45-45,80.3-97.4,105-155.7C977,630.3,990,566.1,990,500C990,433.9,977,369.7,951.5,309.3z"/></g>
</svg>